<?xml version="1.0" encoding="utf-8"?>
<!-- Generator: Adobe Illustrator 22.0.0, SVG Export Plug-In . SVG Version: 6.00 Build 0)  -->
<svg version="1.1" id="Layer_1" xmlns="http://www.w3.org/2000/svg" xmlns:xlink="http://www.w3.org/1999/xlink" x="0px" y="0px"
	 viewBox="0 0 525.5 682.1" style="enable-background:new 0 0 525.5 682.1;" xml:space="preserve">
<style type="text/css">
	.st0{fill:url(#Path_1724_1_);}
	.st1{fill:#1F0133;}
	.st2{opacity:0.15;fill:url(#Path_1631_1_);enable-background:new    ;}
	.st3{fill:none;}
	.st4{opacity:5.000000e-02;fill:#FFFFFF;enable-background:new    ;}
	.st5{opacity:3.000000e-02;fill:#FFFFFF;enable-background:new    ;}
	.st6{opacity:0.1;fill:url(#Path_1635_1_);enable-background:new    ;}
	.st7{opacity:2.000000e-02;fill:#FFFFFF;enable-background:new    ;}
	.st8{opacity:0.1;enable-background:new    ;}
	.st9{opacity:0.2;}
	.st10{opacity:0.4;enable-background:new    ;}
	.st11{fill:url(#Path_1642_1_);}
	.st12{fill:#69539C;}
	.st13{opacity:0.15;fill:#FFFFFF;enable-background:new    ;}
	.st14{opacity:0.35;fill:#FFFFFF;enable-background:new    ;}
	.st15{fill:#FFFFFF;}
	.st16{clip-path:url(#SVGID_2_);}
	.st17{fill:#F6B096;}
	.st18{fill:#0566A6;}
	.st19{fill:#004C80;}
	.st20{fill:#DC977D;}
	.st21{fill:#00CCFF;}
	.st22{fill:#A80403;}
</style>
<g>
	<g id="Group_124090" transform="translate(-23787 -199.548)">
		<g id="Group_423" transform="translate(24015.139 199.548)">
			<g id="Group_421" transform="translate(33.461)">
				
					<linearGradient id="Path_1724_1_" gradientUnits="userSpaceOnUse" x1="-286.8018" y1="737.0489" x2="-286.8018" y2="736.0775" gradientTransform="matrix(2.5768 0 0 -67.033 740.3088 49416.3164)">
					<stop  offset="0" style="stop-color:#FEC983"/>
					<stop  offset="1" style="stop-color:#FF7B7B"/>
				</linearGradient>
				<path id="Path_1724" class="st0" d="M0,30.5c0,0,1.7-46.7,2.3,0s0,44.4,0,44.4H0V30.5z"/>
			</g>
			<path id="Path_1629" class="st1" d="M34.6,120.6c15.9,0,29.2,0.8,32.4,1.9c-1.2-17.7-15.3-31.6-32.4-31.6S3.4,104.8,2.2,122.4
				C5.4,121.4,18.7,120.6,34.6,120.6z"/>
			<path id="Path_1630" class="st1" d="M34.6,92c3.7,0,7.3,0.2,10.9,0.8l0,0l-2-16.3c0,0,0,0,0,0c0-1.3-4-2.4-8.9-2.4
				c-4.7,0-8.6,1-8.9,2.2l0,0v0c0,0,0,0.1,0,0.1l0,0l-2,16.4l0,0C27.3,92.2,31,91.9,34.6,92z"/>
			
				<linearGradient id="Path_1631_1_" gradientUnits="userSpaceOnUse" x1="-267.6211" y1="734.792" x2="-267.6211" y2="733.8206" gradientTransform="matrix(20.8052 0 0 -19.2834 5603.3535 14243.3359)">
				<stop  offset="0" style="stop-color:#FEC983"/>
				<stop  offset="1" style="stop-color:#FF7B7B"/>
			</linearGradient>
			<path id="Path_1631" class="st2" d="M25.3,92.5c3.1-0.4,6.2-0.6,9.3-0.6c3.7,0,7.3,0.2,10.9,0.8l0,0l-2-16.3c0,0,0,0,0,0
				c0-1.3-4-2.4-8.9-2.4c-2.1,0-4.2,0.2-6.2,0.7L25.3,92.5z"/>
			<path id="Path_1632" class="st3" d="M26,92.5c2.8-0.3,5.7-0.5,8.6-0.5c3.7,0,7.3,0.2,10.9,0.8l0,0l-2-16.3c0,0,0,0,0,0
				c0-1.3-4-2.4-8.9-2.4c-1.9,0-3.8,0.2-5.6,0.5L26,92.5z"/>
			<path id="Path_1633" class="st4" d="M29.6,75.4c-0.3,0-0.5,0.1-0.7,0.2L26,92.5c1.2-0.2,2.6-0.3,4.1-0.3l1.3-15.8
				C31.2,75.6,30.3,75.2,29.6,75.4z"/>
			<path id="Path_1634" class="st5" d="M29.5,75.8c-0.3,0.1-0.5,0.1-0.8,0.2L26,92.5c0.9-0.1,1.8-0.2,2.9-0.3l1.9-16
				C30.5,75.9,30,75.7,29.5,75.8z"/>
			
				<linearGradient id="Path_1635_1_" gradientUnits="userSpaceOnUse" x1="-268.9779" y1="735.9645" x2="-268.9779" y2="734.9931" gradientTransform="matrix(63.563 0 0 -30.12 17131.5645 22260.0625)">
				<stop  offset="0" style="stop-color:#FEC983"/>
				<stop  offset="1" style="stop-color:#FF7B7B"/>
			</linearGradient>
			<path id="Path_1635" class="st6" d="M34.6,120.6c13.9,0,25.9,0.6,30.8,1.5c-2.2-16.5-15.2-29.2-30.9-29.2S5.8,105.5,3.7,122.1
				C8.5,121.2,20.5,120.6,34.6,120.6z"/>
			<path id="Path_1636" class="st7" d="M19.8,120.8c0.1-1.8,0.4-3.7,0.7-5.5c0.9-4.1,0.2-4.8,0-7.1c-0.2-2.3,1.9-5.7,7-7.5
				c4.6-1.9,9.8-2.3,14.7-1c5.2,1.3,7.9,3.5,10.3,4.3c0.7,0.2,1.4,0.4,2.2,0.5c-5-6.6-12.1-10.7-19.9-10.7
				c-13.4,0-24.6,12-26.9,27.9C10.8,121.2,15,121,19.8,120.8z"/>
			<path id="Path_1637" class="st8" d="M20.5,115.3c-0.3,1.8-0.6,3.6-0.7,5.5c4.5-0.2,9.5-0.2,14.8-0.2c3.4,0,6.7,0,9.8,0.1
				c-0.8-2.8-1.7-6.7-0.9-8.3c1.4-2.6,6.6-3.7,6.2-6.9c-0.3-1.5-1-2.8-2.1-3.9c-1.7-0.9-3.6-1.5-5.5-2c-4.9-1.2-10-0.9-14.7,1
				c-5.1,1.9-7.2,5.2-7,7.5S21.4,111.2,20.5,115.3z"/>
			<path id="Path_1638" class="st7" d="M15.3,112c-2.2,0-4.3,0.8-5.9,2.3c-0.8,2.4-1.4,4.8-1.8,7.2c3.1-0.3,7.3-0.6,12.1-0.7
				c0.1-1.8,0.4-3.7,0.7-5.5c0.1-0.5,0.2-1,0.3-1.4C19.2,112.7,17.3,112,15.3,112z"/>
			<g id="Group_422" transform="translate(23.36 84.651)" class="st9">
				<path id="Path_1639" class="st10" d="M22.2,8C22.2,7.9,22.2,7.9,22.2,8c0-0.1,0-0.1,0-0.2L22.2,8z"/>
				<path id="Path_1640" class="st10" d="M11.3,7.3c-3.6,0-7.2,0.2-10.7,0.8C1.7,8.6,6,9,11.3,9s9.6-0.4,10.7-0.8
					C18.4,7.6,14.8,7.3,11.3,7.3z"/>
				<path id="Path_1641" class="st10" d="M0.4,7.8C0.3,7.8,0.3,7.8,0.4,7.8c0,0.1,0,0.1,0,0.2L0.4,7.8z"/>
			</g>
			
				<linearGradient id="Path_1642_1_" gradientUnits="userSpaceOnUse" x1="-269.5097" y1="725.0416" x2="-268.5383" y2="725.0416" gradientTransform="matrix(68.3242 0 0 -4.85 18415.4707 3639.353)">
				<stop  offset="0" style="stop-color:#DDDDDD"/>
				<stop  offset="0.766" style="stop-color:#FFFFFF"/>
				<stop  offset="1" style="stop-color:#DDDDDD"/>
			</linearGradient>
			<path id="Path_1642" class="st11" d="M67.8,122.9c0,1.3-14.9,2.4-33.2,2.4s-33.2-1.1-33.2-2.4c0-1.3,14.9-2.4,33.2-2.4
				S67.8,121.6,67.8,122.9z"/>
			<path id="Path_1643" class="st12" d="M34.6,119.9C16,119.9,1,121.1,1,122.6c0,0.2,0.2,0.3,0.5,0.5c0,0-0.1-0.1-0.1-0.2
				c0-1.3,14.9-2.4,33.2-2.4s33.2,1.1,33.2,2.4c0,0.1,0,0.1-0.1,0.2c0.3-0.2,0.5-0.3,0.5-0.5C68.3,121.1,53.2,119.9,34.6,119.9z"/>
			<path id="Path_1644" class="st13" d="M34.6,119.9C16,119.9,1,121.1,1,122.6c0,0.1,0.1,0.2,0.3,0.4c0,0,0-0.1,0-0.1
				c0-1.5,14.9-2.8,33.4-2.8s33.4,1.2,33.4,2.8c0,0,0,0.1,0,0.1c0.2-0.1,0.3-0.2,0.3-0.4C68.3,121.1,53.2,119.9,34.6,119.9z"/>
		</g>
		<ellipse id="Ellipse_32" class="st14" cx="24049.8" cy="821.6" rx="255.2" ry="50.3"/>
		<path id="Path_1645" class="st14" d="M24304.1,817.4L24304.1,817.4l-0.1-0.2c0-0.1-0.1-0.2-0.1-0.3l-221-494.4l0,0c0,0,0,0,0,0
			c0-1.3-14.9-2.4-33.2-2.4s-33.2,1.1-33.2,2.4c0,0,0,0,0,0l0,0l-221,494.5c0,0.1,0,0.1-0.1,0.2l-0.1,0.2h0
			c-0.6,1.3-0.9,2.8-0.9,4.2c0,27.8,114.3,50.3,255.2,50.3c141,0,255.2-22.5,255.2-50.3C24305,820.1,24304.7,818.7,24304.1,817.4z"
			/>
	</g>
	<g>
		<path id="Path_131490" class="st15" d="M419.8,493.3v73.4h-19.1L419.8,493.3z M405.8,453.9l-37.3,112.8v29.5h51.3v30.3h43v-30.3
			h12.2v-29.5h-12.2V453.9H405.8z"/>
		<g id="Group_124092">
			<g>
				<defs>
					<rect id="SVGID_1_" x="50.5" y="405.6" width="424.6" height="233.7"/>
				</defs>
				<clipPath id="SVGID_2_">
					<use xlink:href="#SVGID_1_"  style="overflow:visible;"/>
				</clipPath>
				<g id="Group_124091" class="st16">
					<path id="Path_131491" class="st15" d="M262.8,443.3c54.1,0,98,43.9,98,98s-43.9,98-98,98c-54.1,0-98-43.9-98-98
						c0-26,10.3-50.9,28.7-69.3C211.8,453.6,236.8,443.3,262.8,443.3 M301.1,502.9c-21.2-21.2-55.6-21.2-76.8,0
						c-21.2,21.2-21.2,55.6,0,76.8s55.6,21.2,76.8,0c10.2-10.2,15.9-24,15.9-38.4C317,526.9,311.3,513.1,301.1,502.9"/>
					<path id="Path_131492" class="st15" d="M144.7,453.9v112.8H157v29.5h-12.2v30.3h-43v-30.3H50.5v-29.5l37.3-112.8H144.7z
						 M101.7,566.7v-73.4l-19.1,73.4H101.7z"/>
					<path id="Path_131493" class="st17" d="M143.2,493.8c0,0-1.8,28.1,17.9,44.6c13.3,11.1,22.6,8.5,24.3,11.2
						c2-0.7,4.7-3.8,4.7-3.8s25.5-19.5,34.2-29.9c8.7-10.4,10.7-12.5,10.7-12.5l-9.8-10.5l-10.3,3.3c0,0-19.9,6.2-26.9,18.8
						c-7,12.6-6.5,12.5-6.5,12.5c-5.2-14-22.1-8-21.5-33.9C160.7,467.6,143.2,493.8,143.2,493.8"/>
					<path id="Path_131494" class="st15" d="M212.6,490l-24.2,22.7l-10.6,7.3l19.9,23.1l8.3-9.8l26.8-22.8
						c5.6-4.8,6.4-13.2,1.7-18.9L212.6,490z"/>
					<path id="Path_131495" class="st18" d="M159.6,486c-1.3,1.2-3.6-0.1-4.4-0.8l2.4-26.6c0.2-0.9,0.6-1.8,1.2-2.5
						c0.7-0.8,1.9-0.9,2.7-0.2c0.5,0.4,0.7,1,0.6,1.6l-1.4,16.3L159.6,486z"/>
					<path id="Path_131496" class="st18" d="M154.9,481.8c-1,1.3-3.5,0.6-4.5,0.2l-3.1-24.7c0-0.9,0.3-1.8,0.8-2.6
						c0.6-0.9,1.8-1.1,2.7-0.5c0.4,0.3,0.7,0.8,0.8,1.3l1.9,15.1L154.9,481.8z"/>
					<path id="Path_131497" class="st18" d="M150.1,482.1c-0.7,1.4-3.1,1.2-4,1.1l-7.8-22c-0.3-1.2,0-2.5,0.8-3.4
						c0.5-0.6,1.4-0.7,2-0.2c0.2,0.2,0.4,0.4,0.5,0.7l5,14L150.1,482.1z"/>
					<path id="Path_131498" class="st18" d="M145,490.7c-0.6,1.3-2.8,1.1-3.7,1l-8.9-25.4c-0.2-1,0-2.1,0.7-2.9
						c0.5-0.6,1.4-0.7,2-0.2c0.2,0.2,0.4,0.4,0.5,0.7l4.5,12.8L145,490.7z"/>
					<path id="Path_131499" class="st18" d="M171.1,481.5c-4.5,4.8-6.8,12.6-11.8,13.2c-2.8,0.6-5.6-1.2-6.2-4
						c-0.6-2.8,1.2-5.6,4-6.2c0.3-0.1,0.6-0.1,0.8-0.1c1.5-0.2,3,0.2,4.2,1l2-2c0.4-2.8,2.6-5,5.5-5.2c1.1,0,2,0.8,2,1.9
						C171.6,480.7,171.5,481.2,171.1,481.5"/>
					<path id="Path_131500" class="st18" d="M138.7,484c-0.5-5.7,6.2-8.3,10-8.8c2.5-0.2,5,0.1,7.4,0.8l0,0c2.6,0.5,4.5,2.6,4.9,5.2
						c0,0,0,0.1,0,0.1l0.8,6.3c0.5,3.7-1.7,7.1-4.8,7.5l-11,1.4c-3.1,0.4-6-2.3-6.5-6.1l-0.7-6L138.7,484
						C138.7,484.1,138.7,484.1,138.7,484"/>
					<path id="Path_131501" class="st19" d="M143.7,485.1c5.4,0,7.8,4.9,8,7.3c-0.6-4.1,2-8,6-9L143.7,485.1z"/>
					<path id="Path_131502" class="st19" d="M161.9,498c0-0.3,0-0.6,0.1-0.9c0-0.3,0-0.6,0-0.9c0-0.6-0.2-1.2-0.6-1.7
						c-0.4-0.5-0.9-0.8-1.5-1c-5.4-0.9-10.8-0.7-16.1,0.6c-0.6,0.2-1.1,0.6-1.5,1.1c-0.4,0.5-0.5,1.1-0.5,1.7c0,0.3,0.1,0.6,0.1,0.9
						c0,0.3,0.1,0.6,0.1,0.9c0.1,0.5,0.4,1,0.9,1.3c0.5,0.3,1,0.3,1.5,0.2c5-1.3,10.2-1.5,15.2-0.6c0.5,0.1,1.1,0,1.5-0.3
						C161.6,499.1,161.9,498.6,161.9,498"/>
					<path id="Path_131503" class="st17" d="M382.4,493.8c0,0,1.8,28.1-17.9,44.6c-13.3,11.1-22.6,8.5-24.3,11.2
						c-2-0.7-4.7-3.8-4.7-3.8s-25.5-19.5-34.2-29.9c-8.7-10.4-10.7-12.5-10.7-12.5l9.8-10.5l9.9,5.8c0,0,20.3,3.7,27.3,16.3
						c7,12.6,6.5,12.5,6.5,12.5c5.2-14,22.1-8,21.5-33.9C364.9,467.6,382.4,493.8,382.4,493.8"/>
					<path id="Path_131504" class="st15" d="M312.9,490l24.2,22.7l10.6,7.3L327.7,543l-8.3-9.8l-26.8-22.8
						c-5.6-4.8-6.4-13.2-1.7-18.9L312.9,490z"/>
					<path id="Path_131505" class="st18" d="M365.9,486c1.3,1.2,3.6-0.1,4.4-0.8l-2.4-26.6c-0.2-0.9-0.6-1.8-1.2-2.5
						c-0.7-0.8-1.9-0.9-2.7-0.2c-0.5,0.4-0.7,1-0.6,1.6l1.4,16.3L365.9,486z"/>
					<path id="Path_131506" class="st18" d="M370.6,481.8c1,1.3,3.5,0.6,4.5,0.2l3.1-24.7c0-0.9-0.3-1.8-0.8-2.6
						c-0.6-0.9-1.8-1.1-2.7-0.5c-0.4,0.3-0.7,0.8-0.8,1.3l-1.9,15.1L370.6,481.8z"/>
					<path id="Path_131507" class="st18" d="M375.4,482.1c0.7,1.4,3.1,1.2,4,1.1l7.8-22c0.3-1.2,0-2.5-0.8-3.4
						c-0.5-0.6-1.4-0.7-2-0.2c-0.2,0.2-0.4,0.4-0.5,0.7l-5,14L375.4,482.1z"/>
					<path id="Path_131508" class="st18" d="M380.5,490.7c0.6,1.3,2.8,1.1,3.7,1l8.9-25.4c0.2-1,0-2.1-0.7-2.9
						c-0.5-0.6-1.4-0.7-2-0.2c-0.2,0.2-0.4,0.4-0.5,0.7l-4.5,12.8L380.5,490.7z"/>
					<path id="Path_131509" class="st18" d="M354.4,481.5c4.5,4.8,6.8,12.6,11.8,13.2c2.8,0.6,5.6-1.2,6.2-4c0.6-2.8-1.2-5.6-4-6.2
						c-0.3-0.1-0.6-0.1-0.8-0.1c-1.5-0.2-3,0.2-4.2,1l-2-2c-0.4-2.8-2.6-5-5.5-5.2c-1.1,0-2,0.8-2,1.9
						C353.9,480.7,354.1,481.2,354.4,481.5"/>
					<path id="Path_131510" class="st18" d="M386.8,484c0.5-5.7-6.2-8.3-10-8.8c-2.5-0.2-5,0.1-7.4,0.8l0,0
						c-2.6,0.5-4.5,2.6-4.9,5.2c0,0,0,0.1,0,0.1l-0.8,6.3c-0.5,3.7,1.7,7.1,4.8,7.5l11,1.4c3.1,0.4,6-2.3,6.5-6.1l0.7-6L386.8,484
						C386.8,484.1,386.8,484.1,386.8,484"/>
					<path id="Path_131511" class="st19" d="M381.8,485.1c-5.4,0-7.8,4.9-8,7.3c0.6-4.1-2-8-6-9L381.8,485.1z"/>
					<path id="Path_131512" class="st19" d="M363.6,498c0-0.3,0-0.6-0.1-0.9c0-0.3,0-0.6,0-0.9c0-0.6,0.2-1.2,0.6-1.7
						c0.4-0.5,0.9-0.8,1.5-1c5.4-0.9,10.8-0.7,16.1,0.6c0.6,0.2,1.1,0.6,1.5,1.1c0.4,0.5,0.5,1.1,0.5,1.7c0,0.3-0.1,0.6-0.1,0.9
						c0,0.3-0.1,0.6-0.1,0.9c-0.1,0.5-0.4,1-0.9,1.3c-0.5,0.3-1,0.3-1.5,0.2c-5-1.3-10.2-1.5-15.2-0.6c-0.5,0.1-1.1,0-1.5-0.3
						C363.9,499.1,363.6,498.6,363.6,498"/>
					<path id="Path_131513" class="st15" d="M212.6,490c16.3-3.7,33.1-6.4,50.1-6.4s33.9,2.7,50.1,6.4c-3,3.8-5,6.7-7.1,13.9
						s-1.7,15.7,1.9,19c-1.2,5.6-2.3,12.3-3.4,17.9c-2.7,14.1-5.1,28.3-7.1,42.4c-20,16.5-49,16.5-69,0c-1.9-14.1-4.3-28.3-6.9-42.4
						c-1.1-5.6-2.3-12.3-3.5-17.9c3.6-3.3,4-11.8,1.9-19S215.6,493.8,212.6,490"/>
					<path id="Path_131514" class="st20" d="M247.7,454.9h30.2v30.7c-8.7,7.3-21.4,7.3-30.2,0L247.7,454.9z"/>
					<path id="Path_131515" class="st17" d="M288.6,450.2c3-0.2,5.7,2,5.9,5c0.2,3-2,5.7-5,5.9s-5.7-2-5.9-5c0-0.1,0-0.3,0-0.4
						C283.4,452.8,285.7,450.3,288.6,450.2"/>
					<path id="Path_131516" class="st20" d="M288.6,452.8c1.6-0.1,3,1,3.1,2.6c0.1,1.6-1,3-2.6,3.1c-1.6,0.1-3-1-3.1-2.6
						c0-0.1,0-0.2,0-0.2C285.9,454.2,287.1,452.9,288.6,452.8"/>
					<path id="Path_131517" class="st17" d="M236.9,450.2c3-0.2,5.7,2,5.9,5c0.2,3-2,5.7-5,5.9c-3,0.2-5.7-2-5.9-5
						c0-0.1,0-0.3,0-0.4C231.8,452.8,234.1,450.3,236.9,450.2"/>
					<path id="Path_131518" class="st20" d="M236.9,452.8c1.6-0.1,3,1,3.1,2.6c0.1,1.6-1,3-2.6,3.1c-1.6,0.1-3-1-3.1-2.6
						c0-0.1,0-0.2,0-0.2C234.3,454.2,235.4,452.9,236.9,452.8"/>
					<path id="Path_131519" class="st17" d="M254.3,484.7c-7-6.8-17.4-11.3-17.4-11.3v-23.1c0,0-0.7-29.8,25.3-26.9
						c25.9-2.8,26.6,26.9,26.6,26.9v23.1c0,0-10.8,5.7-17.3,11.3C265.8,483.1,259.9,483.1,254.3,484.7"/>
					<path id="Path_131520" class="st20" d="M258.5,464.7c0.5,1.2,3.5,2.4,4.4,2.8c0.9-0.3,3.8-1.5,4.4-2.8
						C264.3,465.5,261.3,465.5,258.5,464.7"/>
					<path id="Path_131521" class="st20" d="M258,451.2c0,0,5.7,7.1,0.5,13.6l0.9,0.5C262.6,460.3,261.5,455.5,258,451.2"/>
					<path id="Path_131522" d="M282.5,425.7c0,0-3.1,6.2-2.4,11.5c0.7,5.3,5.9,11.8,4.6,18.4c-0.2,1.2-0.4,2.1-0.6,3
						c-0.1,0.6,0.1,1.2,0.6,1.5c0.5,0.3,1.1,0.3,1.6-0.1l2.1-1.8C288.3,458.1,291.2,436.3,282.5,425.7"/>
					<path id="Path_131523" d="M243.2,425.7c0,0,3.1,6.2,2.4,11.5c-0.7,5.3-5.9,11.8-4.6,18.4c0.2,1.2,0.4,2.1,0.6,3
						c0.2,0.6-0.1,1.2-0.6,1.5c-0.5,0.3-1.1,0.3-1.6-0.1l-2.1-1.8C237.4,458.1,234.5,436.3,243.2,425.7"/>
					<path id="Path_131524" d="M277,444.6c-1.9-1.1-4.3-1.1-6.2,0.2l9.2,5.3C280.1,447.9,279,445.8,277,444.6"/>
					<path id="Path_131525" d="M248.9,445.7c1.9-1.1,4.3-1.1,6.2,0.2l-9.2,5.3C245.8,448.9,246.9,446.8,248.9,445.7"/>
					<path id="Path_131526" class="st15" d="M254.5,448.3c-2.8,0-5,2.8-5,6.3c0,3.5,2.3,6.3,5,6.3s5-2.8,5-6.3
						C259.5,451.1,257.2,448.3,254.5,448.3"/>
					<path id="Path_131527" class="st21" d="M253,449c-1,0-1.8,0.8-1.8,1.8c0,1,0.8,1.8,1.8,1.8c1,0,1.8-0.8,1.8-1.8
						C254.8,449.8,254,449,253,449"/>
					<path id="Path_131528" class="st15" d="M254.2,448.8c-0.4,0-0.8,0.3-0.8,0.8c0,0.4,0.3,0.8,0.8,0.8c0.4,0,0.8-0.3,0.8-0.8l0,0
						C255,449.2,254.6,448.8,254.2,448.8"/>
					<path id="Path_131529" class="st15" d="M252.6,451.3c-0.3,0-0.5,0.2-0.5,0.5c0,0.3,0.2,0.5,0.5,0.5c0.3,0,0.5-0.2,0.5-0.5
						c0,0,0,0,0,0C253.1,451.5,252.8,451.3,252.6,451.3"/>
					<path id="Path_131530" d="M253.1,449.7c-0.5,0-1,0.4-1,1c0,0.5,0.4,1,1,1s1-0.4,1-1C254,450.2,253.6,449.7,253.1,449.7"/>
					<path id="Path_131531" class="st15" d="M270.2,448.3c-2.8,0-5,2.8-5,6.3c0,3.5,2.3,6.3,5,6.3c2.8,0,5-2.8,5-6.3
						C275.3,451.1,273,448.3,270.2,448.3"/>
					<path id="Path_131532" class="st21" d="M268.8,449c-1,0-1.8,0.8-1.8,1.8c0,1,0.8,1.8,1.8,1.8c1,0,1.8-0.8,1.8-1.8c0,0,0,0,0,0
						C270.6,449.8,269.8,449,268.8,449"/>
					<path id="Path_131533" class="st15" d="M270,448.8c-0.4,0-0.8,0.3-0.8,0.8c0,0.4,0.3,0.8,0.8,0.8s0.8-0.3,0.8-0.8l0,0
						C270.7,449.2,270.4,448.8,270,448.8"/>
					<path id="Path_131534" class="st15" d="M268.3,451.3c-0.3,0-0.5,0.2-0.5,0.5c0,0.3,0.2,0.5,0.5,0.5c0.3,0,0.5-0.2,0.5-0.5
						c0,0,0,0,0,0C268.8,451.5,268.6,451.3,268.3,451.3"/>
					<path id="Path_131535" d="M268.8,449.7c-0.5,0-1,0.4-1,1c0,0.5,0.4,1,1,1c0.5,0,1-0.4,1-1C269.8,450.2,269.3,449.7,268.8,449.7
						"/>
					<path id="Path_131536" class="st20" d="M266.3,476.1c-2.3,1-3.9,3.2-4,5.7c0.1-1.9-1.2-3.5-3.1-3.6c-0.3,0-0.6,0-0.9,0
						L266.3,476.1z"/>
					<path id="Path_131537" class="st15" d="M251.6,473c0-2.5,4.7-4.5,10.4-4.5c5.3,0,8.5,1.4,10.4,4c-4.1-4-12.9-3-16.3-0.5
						S251.6,473,251.6,473"/>
					<path id="Path_131538" class="st22" d="M272.3,472.3c0.1,0.1,0.1,0.1,0.2,0.2c-4.1-4-12.9-3-16.3-0.5c-2.6,1.9-3.8,1.5-4.3,1.1
						C255.1,469.9,266.1,466.8,272.3,472.3"/>
					<path id="Path_131539" class="st20" d="M257.6,473.2c0,0-6.7,3.5-7.5,0.7C249.1,475.2,252.3,477.5,257.6,473.2"/>
					<path id="Path_131540" class="st18" d="M262.8,405.6c1.7,0,3.1,0.5,3.1,1.1c0,0.6-1.4,1.1-3.1,1.1s-3.1-0.5-3.1-1.1
						C259.8,406.1,261.1,405.6,262.8,405.6"/>
					<path id="Path_131541" class="st19" d="M236.9,439.7h51.9v-16.5c0-9.1-7.4-16.5-16.5-16.5h-18.9c-9.1,0-16.5,7.4-16.5,16.5
						V439.7z"/>
					<path id="Path_131542" class="st18" d="M241,452.3c6.5-6.6,14.1-9.9,21.8-10c7.7,0.1,15.4,3.4,21.8,10
						c6.4,6.5,6.3-10.1,4.1-17.6c-7.3-3.3-16.6-5-25.9-5c-9.3,0-18.6,1.7-25.9,5C234.7,442.7,234.6,458.8,241,452.3"/>
					<path id="Path_131543" class="st15" d="M279.3,420.6v7.7c0,0.4-0.2,0.7-0.5,0.9c-0.3,0.2-0.7,0.3-1.1,0.3
						c-9.9-1.8-20-1.8-29.8,0c-0.4,0.1-0.8,0-1.1-0.3c-0.3-0.2-0.5-0.6-0.5-0.9v-7.7c0-0.6,0.4-1.1,1-1.2c10.2-1.9,20.6-1.9,30.8,0
						C278.8,419.5,279.3,420,279.3,420.6"/>
					<path id="Path_131544" class="st18" d="M237.5,512.8h6.7v-29.5c-2.2,0.2-4.5,0.4-6.7,0.7V512.8z M281.3,483.4
						c2.2,0.2,4.5,0.4,6.7,0.7v28.8h-6.7V483.4z"/>
					<path id="Path_131545" class="st19" d="M303.4,546c-2.3,12.4-4.3,24.7-6.1,37.1c-20,16.5-49,16.6-69,0.1
						c-1.7-12.4-3.8-24.8-6.1-37.2h1.9c7.4,0,13.3-6,13.4-13.4v-26.2h50.6v26.2c0,7.4,6,13.3,13.4,13.4L303.4,546z"/>
					<path id="Path_131546" d="M237.4,500.2h7c0.7,0,1.2,0.5,1.2,1.2v2.6c0,0.7-0.5,1.2-1.2,1.2h-7c-0.7,0-1.2-0.5-1.2-1.2v-2.6
						C236.2,500.8,236.7,500.2,237.4,500.2 M244.3,501.6h-6.7v2.3h6.7L244.3,501.6z"/>
					<path id="Path_131547" d="M281.2,500.2h7c0.7,0,1.2,0.5,1.2,1.2v2.6c0,0.7-0.5,1.2-1.2,1.2h-7c-0.7,0-1.2-0.5-1.2-1.2v-2.6
						C280,500.8,280.5,500.2,281.2,500.2 M288.1,501.6h-6.7v2.3h6.7V501.6z"/>
					<rect id="Rectangle_38606" x="243.8" y="517.9" class="st18" width="38.1" height="28.9"/>
					<path id="Path_131548" class="st19" d="M280.4,519.3v12.5c0,3-2.5,5.5-5.5,5.5h-24.2c-3,0-5.5-2.5-5.5-5.5v-12.5H280.4z"/>
				</g>
			</g>
		</g>
	</g>
</g>
</svg>
